<?xml version="1.0" standalone="no"?>
<!DOCTYPE svg PUBLIC "-//W3C//DTD SVG 20010904//EN"
 "http://www.w3.org/TR/2001/REC-SVG-20010904/DTD/svg10.dtd">
<svg version="1.0" xmlns="http://www.w3.org/2000/svg"
 width="100.000000pt" height="100.000000pt" viewBox="0 0 100.000000 100.000000"
 preserveAspectRatio="xMidYMid meet">
<metadata>
Created by potrace 1.14, written by Peter Selinger 2001-2017
</metadata>
<g transform="translate(0.000000,100.000000) scale(0.100000,-0.100000)"
fill="#000000" stroke="none">
<path d="M0 500 l0 -500 374 0 375 0 4 38 4 37 1 -37 c1 -26 7 -38 17 -38 11
0 15 11 15 41 0 52 24 48 28 -4 l3 -37 90 0 89 0 0 500 0 500 -175 0 c-96 0
-175 -3 -175 -8 0 -4 34 -44 75 -89 l76 -82 -25 -16 c-14 -9 -33 -14 -44 -11
-12 4 -25 -1 -37 -14 -16 -18 -16 -20 -2 -20 10 0 17 5 17 10 0 18 29 11 40
-9 29 -55 -2 -165 -59 -214 -30 -25 -46 -32 -96 -39 -15 -2 -23 -15 -30 -49
-15 -71 -26 -79 -106 -76 -58 2 -69 5 -69 19 0 10 -6 18 -12 18 -44 -1 -56
-53 -57 -247 -1 -107 -3 -123 -19 -132 -38 -20 -42 -2 -37 160 5 176 15 208
74 243 l36 21 -55 8 c-30 4 -87 11 -125 15 -68 7 -125 31 -125 52 0 6 8 10 18
10 14 0 15 2 2 10 -22 14 11 45 63 60 l43 11 1 67 c0 37 1 76 2 86 1 11 -10
29 -25 41 l-26 21 34 26 c20 15 54 50 78 77 l42 51 -151 0 -151 0 0 -500z
m603 -131 c5 -3 2 -9 -5 -12 -9 -3 -14 3 -15 15 -1 11 1 16 5 12 4 -5 11 -12
15 -15z m-53 -13 c0 -3 -4 -8 -10 -11 -5 -3 -10 -1 -10 4 0 6 5 11 10 11 6 0
10 -2 10 -4z m130 -37 c0 -5 12 -12 28 -16 l27 -6 -30 -9 c-25 -7 -33 -4 -52
17 -12 14 -25 20 -28 15 -3 -6 -10 -10 -16 -10 -15 0 -10 22 8 35 14 10 21 10
40 -2 13 -9 23 -19 23 -24z m-184 -22 c-3 -16 -6 -45 -6 -64 0 -30 -3 -34 -22
-31 -19 2 -23 9 -23 38 -1 19 -4 45 -9 58 -6 18 -3 24 16 31 36 13 51 3 44
-32z m357 -93 c-6 -17 -23 -8 -23 13 0 13 -3 13 -15 3 -16 -14 -18 -8 -8 29
l6 24 23 -28 c12 -15 20 -34 17 -41z m37 -89 c0 -8 -9 -15 -20 -15 -20 0 -26
11 -13 23 12 13 33 7 33 -8z"/>
<path d="M386 985 c-3 -8 -1 -15 4 -15 6 0 10 7 10 15 0 8 -2 15 -4 15 -2 0
-6 -7 -10 -15z"/>
<path d="M445 976 c0 -13 3 -22 8 -19 4 2 7 13 7 24 0 10 -3 19 -7 19 -5 0 -8
-11 -8 -24z"/>
<path d="M610 951 c0 -5 9 -19 20 -32 l20 -24 -11 33 c-10 29 -29 45 -29 23z"/>
<path d="M265 920 c-3 -5 -2 -10 4 -10 5 0 13 5 16 10 3 6 2 10 -4 10 -5 0
-13 -4 -16 -10z"/>
<path d="M441 864 c0 -11 3 -14 6 -6 3 7 2 16 -1 19 -3 4 -6 -2 -5 -13z"/>
<path d="M410 782 c0 -18 5 -32 10 -32 6 0 8 11 4 28 -10 39 -14 40 -14 4z"/>
<path d="M292 773 c-16 -6 31 -33 57 -33 12 1 11 5 -8 20 -24 21 -28 22 -49
13z"/>
<path d="M576 765 c-3 -8 -1 -15 4 -15 13 0 22 18 11 24 -5 3 -11 -1 -15 -9z"/>
<path d="M630 770 c0 -5 5 -10 11 -10 5 0 7 5 4 10 -3 6 -8 10 -11 10 -2 0 -4
-4 -4 -10z"/>
<path d="M474 745 c-18 -14 -17 -14 13 -15 35 0 52 14 27 24 -20 8 -17 8 -40
-9z"/>
<path d="M300 640 c26 -20 42 -24 53 -13 11 10 -26 32 -53 32 l-25 1 25 -20z"/>
<path d="M452 648 c-9 -9 -5 -15 19 -25 17 -7 34 -11 39 -8 13 8 4 -99 -11
-122 -8 -14 -24 -23 -38 -23 -24 0 -24 0 -5 -15 50 -38 78 -8 79 88 0 58 -4
77 -19 95 -22 24 -46 28 -64 10z"/>
</g>
</svg>
